{"title":"Grudge Match 2013 HDRiP HCSUBS AC3 XViD-DontKnow","uid":9456110,"size":1367709820,"categoryP":"video","categoryS":"movies","magnet":"?xt=urn:btih:536c77cc2415203ff6559ddbec8f7af5e3c5f904&amp;dn=Grudge+Match+2013+HDRiP+HCSUBS+AC3+XViD-DontKnow&amp;tr=udp%3A%2F%2Ftracker.openbittorrent.com%3A80&amp;tr=udp%3A%2F%2Fopen.demonii.com%3A1337&amp;tr=udp%3A%2F%2Ftracker.coppersurfer.tk%3A6969&amp;tr=udp%3A%2F%2Fexodus.desync.com%3A6969","seeders":1,"leechers":0,"uploader":"xxxlavalxxx","files":-1,"time":1389275429,"description":" &lt;a href=&quot;\nhttp://www.imdb.com/title/tt1661382/&quot; rel=&quot;nofollow&quot; target=&quot;_NEW&quot;&gt;\nhttp://www.imdb.com/title/tt1661382/&lt;/a&gt;\n\n\nA pair of aging boxing rivals are coaxed out of retirement to fight one final bout -- 30 years after their last match.\n\nDirector: Peter Segal\nWriters: Tim Kelleher (screenplay), Rodney Rothman (screenplay)\nStars: Robert De Niro, Sylvester Stallone, Kim Basinger \nGenres: Comedy | Sport\nCountry: USA\nLanguage: English\n\n\nInfo:\nFormat : AVI\nFormat/Info : Audio Video Interleave\nFormat profile : OpenDML\nFile size : 1.27 GiB\nDuration : 1h 53mn\nOverall bit rate : 1 600 Kbps\nWriting application : Lavf55.21.100\n\nVideo\nID : 0\nFormat : xvid\nCodec ID : xvid\nDuration : 1h 53mn\nBit rate : 1 396 Kbps\nWidth : 720 pixels\nHeight : 405 pixels\nDisplay aspect ratio : 16:9\nFrame rate : 23.976 fps\nBits/(Pixel*Frame) : 0.200\nStream size : 1.11 GiB (87%)\n\nAudio\nID : 1\nFormat : AC-3\nFormat/Info : Audio Coding 3\nMode extension : CM (complete main)\nFormat settings, Endianness : Big\nCodec ID : 2000\nDuration : 1h 53mn\nBit rate mode : Constant\nBit rate : 192 Kbps\nChannel(s) : 2 channels\nChannel positions : Front: L R\nSampling rate : 44.1 KHz\nBit depth : 16 bits\nCompression mode : Lossy\nStream size : 157 MiB (12%)\nAlignment : Aligned on interleaves\nInterleave, duration : 35 ms (0.84 video frame)\nTitle : Grudge Match 2013\n\n\n\nscreens\n &lt;a href=&quot;\nhttp://i.imgur.com/Jy2EtdP.png&quot; rel=&quot;nofollow&quot; target=&quot;_NEW&quot;&gt;\nhttp://i.imgur.com/Jy2EtdP.png&lt;/a&gt; &lt;a href=&quot;\nhttp://i.imgur.com/SVC4wsD.png&quot; rel=&quot;nofollow&quot; target=&quot;_NEW&quot;&gt;\nhttp://i.imgur.com/SVC4wsD.png&lt;/a&gt; &lt;a href=&quot;\nhttp://i.imgur.com/5o3HuSW.png&quot; rel=&quot;nofollow&quot; target=&quot;_NEW&quot;&gt;\nhttp://i.imgur.com/5o3HuSW.png&lt;/a&gt; &lt;a href=&quot;\nhttp://i.imgur.com/0lNF6J3.png&quot; rel=&quot;nofollow&quot; target=&quot;_NEW&quot;&gt;\nhttp://i.imgur.com/0lNF6J3.png&lt;/a&gt;","torrent":{"xt":"urn:btih:536c77cc2415203ff6559ddbec8f7af5e3c5f904","amp;dn":"Grudge+Match+2013+HDRiP+HCSUBS+AC3+XViD-DontKnow","amp;tr":["udp%3A%2F%2Ftracker.openbittorrent.com%3A80","udp%3A%2F%2Fopen.demonii.com%3A1337","udp%3A%2F%2Ftracker.coppersurfer.tk%3A6969","udp%3A%2F%2Fexodus.desync.com%3A6969"],"infoHash":"536c77cc2415203ff6559ddbec8f7af5e3c5f904","infoHashBuffer":{"type":"Buffer","data":[83,108,119,204,36,21,32,63,246,85,157,219,236,143,122,245,227,197,249,4]},"announce":[],"urlList":[]}}